solid motoman_axis_b1
   facet normal 0.000000e+000 9.954889e-001 9.487799e-002
      outer loop
         vertex 3.400000e+002 4.700000e+002 -1.110223e-013
         vertex 0.000000e+000 4.700000e+002 -1.110223e-013
         vertex 3.400000e+002 4.050000e+002 6.820000e+002
      endloop
   endfacet
   facet normal 0.000000e+000 9.954889e-001 9.487799e-002
      outer loop
         vertex 3.400000e+002 4.050000e+002 6.820000e+002
         vertex 0.000000e+000 4.700000e+002 -1.110223e-013
         vertex 0.000000e+000 4.050000e+002 6.820000e+002
      endloop
   endfacet
   facet normal 0.000000e+000 0.000000e+000 -1.000000e+000
      outer loop
         vertex 3.400000e+002 0.000000e+000 0.000000e+000
         vertex 0.000000e+000 0.000000e+000 0.000000e+000
         vertex 3.400000e+002 4.700000e+002 0.000000e+000
      endloop
   endfacet
   facet normal 0.000000e+000 0.000000e+000 -1.000000e+000
      outer loop
         vertex 3.400000e+002 4.700000e+002 0.000000e+000
         vertex 0.000000e+000 0.000000e+000 0.000000e+000
         vertex 0.000000e+000 4.700000e+002 0.000000e+000
      endloop
   endfacet
   facet normal 0.000000e+000 -9.954889e-001 9.487799e-002
      outer loop
         vertex 3.400000e+002 6.500000e+001 6.820000e+002
         vertex 0.000000e+000 6.500000e+001 6.820000e+002
         vertex 3.400000e+002 0.000000e+000 -1.110223e-013
      endloop
   endfacet
   facet normal 0.000000e+000 -9.954889e-001 9.487799e-002
      outer loop
         vertex 3.400000e+002 0.000000e+000 -1.110223e-013
         vertex 0.000000e+000 6.500000e+001 6.820000e+002
         vertex 0.000000e+000 0.000000e+000 -1.110223e-013
      endloop
   endfacet
   facet normal 0.000000e+000 0.000000e+000 1.000000e+000
      outer loop
         vertex 3.400000e+002 4.050000e+002 6.820000e+002
         vertex 0.000000e+000 4.050000e+002 6.820000e+002
         vertex 3.400000e+002 6.500000e+001 6.820000e+002
      endloop
   endfacet
   facet normal 0.000000e+000 0.000000e+000 1.000000e+000
      outer loop
         vertex 3.400000e+002 6.500000e+001 6.820000e+002
         vertex 0.000000e+000 4.050000e+002 6.820000e+002
         vertex 0.000000e+000 6.500000e+001 6.820000e+002
      endloop
   endfacet
   facet normal -1.000000e+000 0.000000e+000 0.000000e+000
      outer loop
         vertex 0.000000e+000 0.000000e+000 0.000000e+000
         vertex 0.000000e+000 6.500000e+001 6.820000e+002
         vertex 0.000000e+000 4.700000e+002 0.000000e+000
      endloop
   endfacet
   facet normal -1.000000e+000 0.000000e+000 0.000000e+000
      outer loop
         vertex 0.000000e+000 4.700000e+002 0.000000e+000
         vertex 0.000000e+000 6.500000e+001 6.820000e+002
         vertex 0.000000e+000 4.050000e+002 6.820000e+002
      endloop
   endfacet
   facet normal 1.000000e+000 0.000000e+000 0.000000e+000
      outer loop
         vertex 3.400000e+002 6.500000e+001 6.820000e+002
         vertex 3.400000e+002 0.000000e+000 0.000000e+000
         vertex 3.400000e+002 4.050000e+002 6.820000e+002
      endloop
   endfacet
   facet normal 1.000000e+000 0.000000e+000 0.000000e+000
      outer loop
         vertex 3.400000e+002 4.050000e+002 6.820000e+002
         vertex 3.400000e+002 0.000000e+000 0.000000e+000
         vertex 3.400000e+002 4.700000e+002 0.000000e+000
      endloop
   endfacet
endsolid